# xmcd
#
# Track frame offsets: 
#        180
#        11385
#        22646
#        35815
#        47402
#        61455
#        74956
#        86732
#        98531
#        115499
#        129190
#        139400
#
# Disc length: 2016 seconds
#
# Revision: 0
# Processed by: cddbd v1.5.1PL0 Copyright (c) Steve Scherf et al.
# Submitted via: ExactAudioCopy v0.95a4
#
DISCID=a007de0c
DTITLE=Conway Twitty - The Late Great
DYEAR=1997
DGENRE=Country
TTITLE0=After All The Good Is Gone
TTITLE1=Baby's Gone
TTITLE2=Don't Cry Joni
TTITLE3=Hello Darlin'
TTITLE4=I Can't See Me Without You
TTITLE5=It's Only Make Believe
TTITLE6=I'm Not Through Loving You Yet
TTITLE7=(Lying Here With) Linda On My Mind
TTITLE8=The Games That Daddies Play
TTITLE9=(I Can't Believe) She Gives It All To Me
TTITLE10=To See An Angel Cry
TTITLE11=You've Never Been This Far Before
EXTD=
EXTT0=
EXTT1=
EXTT2=
EXTT3=
EXTT4=
EXTT5=
EXTT6=
EXTT7=
EXTT8=
EXTT9=
EXTT10=
EXTT11=
PLAYORDER=
